<?xml version="1.0" encoding="utf-8"?>
<svg version="1.1" id="Layer_1" xmlns="http://www.w3.org/2000/svg" x="0px" y="0px" viewBox="0 0 650.832 800" style="enable-background:new 0 0 650.832 800;">
  <style type="text/css">
	.st0{fill:#40B3D8;}
	.st1{fill:#83C933;}
	.st2{fill-rule:evenodd;clip-rule:evenodd;fill:#F18A2A;}
	.st3{fill:#7FB93C;}
</style>
  <g id="yii_logo">
    <path class="st0" d="M481.395,508.535c-5.4-71.26-28.382-117.45-39.574-143.628c-11.187-26.174-28.387-50.675-28.398-50.637 c-0.033,0.112-15.486,83.388-43.271,143.639c-4.638,10.064-10.797,22.626-17.013,32.744l0.002,0.001 c-19.183,33.866-47.013,66.265-63.604,99.105c-16.449,32.546-19.501,64.78-17.97,101.427 c1.543,36.85,10.054,72.992,18.227,108.816c30.81-6.647,57.628-18.023,80.825-32.563c61.05-38.274,97.939-99.492,108.423-165.444 c0,0,0.511-2.678,0.738-5.945C484.509,545.078,482.945,528.996,481.395,508.535z"/>
    <path class="st1" d="M481.395,508.535c-5.4-71.26-28.382-117.45-39.574-143.628c-11.187-26.174-28.387-50.675-28.398-50.637 c0,0-0.004,0.017-0.004,0.018c0.001-0.011,0.004-0.023,0.004-0.023l-4.106-6.105c-90.029-126.38-262.69-189.479-408.57-130.996 c-7.024,88.584,34.046,241.004,183.875,283.517c60.572,18.634,109.076,13.803,168.521,29.966 c-0.003,0.002-0.003,0.004-0.005,0.005c0,0,60.424,21.058,95.576,52.638c15.813,14.202,31.646,32.891,30.851,55.121 C484.574,545.505,482.97,529.32,481.395,508.535z"/>
    <path class="st2" d="M 415.97 240.106 C 394.681 177.824 403.703 136.09 442.649 78.01 C 461.224 50.299 493.297 18.156 521.405 0 C 634.814 71.067 676.747 203.439 635.04 326.375 C 604.686 415.825 576.207 453.33 504.2 545.365 C 512.593 446.796 477.903 378.464 443.841 302.534 C 435.174 283.216 423.186 261.223 415.97 240.106"/>
    <path class="st3" d="M 479.567 598.411 C 480.362 576.181 464.529 557.492 448.715 543.29 C 413.563 511.711 353.141 490.653 353.141 490.653 C 359.358 480.535 365.516 467.972 370.153 457.908 C 397.939 397.656 413.392 314.382 413.425 314.269 C 413.436 314.231 430.635 338.733 441.823 364.906 C 453.016 391.085 475.998 437.274 481.397 508.534 C 482.97 529.319 484.574 545.505 479.567 598.411 Z"/>
  </g>
  <g>
    <rect x="492" y="600" width="146" height="26" style="fill: rgb(64, 179, 216); paint-order: fill;" ry="5"/>
    <rect x="492" y="640" width="146" height="26" style="fill: rgb(64, 179, 216); paint-order: fill;" ry="5"/>
    <rect x="492" y="680" width="146" height="26" style="fill: rgb(64, 179, 216); paint-order: fill;" ry="5"/>
  </g>
</svg>